<mxfile host="app.diagrams.net">
  <diagram name="User Registration Flowchart">
    <mxGraphModel dx="850" dy="400" grid="1" gridSize="10" guides="1" tooltips="1" connect="1" arrows="1" fold="1" page="1" pageScale="1" pageWidth="850" pageHeight="1100" math="0" shadow="0">
      <root>
        <mxCell id="0"/>
        <mxCell id="1" parent="0"/>

        <mxCell id="start" value="Start" style="ellipse;whiteSpace=wrap;html=1;aspect=fixed;fillColor=#d5e8d4;" vertex="1" parent="1">
          <mxGeometry x="60" y="40" width="100" height="40" as="geometry"/>
        </mxCell>

        <mxCell id="submit" value="User submits registration form" style="rounded=1;whiteSpace=wrap;html=1;fillColor=#dae8fc;" vertex="1" parent="1">
          <mxGeometry x="40" y="100" width="180" height="40" as="geometry"/>
        </mxCell>

        <mxCell id="validate" value="Validate input data" style="rhombus;whiteSpace=wrap;html=1;fillColor=#fff2cc;" vertex="1" parent="1">
          <mxGeometry x="60" y="160" width="120" height="60" as="geometry"/>
        </mxCell>

        <mxCell id="validNo" value="Return validation error" style="rounded=1;whiteSpace=wrap;html=1;fillColor=#f8cecc;" vertex="1" parent="1">
          <mxGeometry x="240" y="160" width="160" height="40" as="geometry"/>
        </mxCell>

        <mxCell id="checkEmail" value="Check if email exists" style="rhombus;whiteSpace=wrap;html=1;fillColor=#fff2cc;" vertex="1" parent="1">
          <mxGeometry x="60" y="240" width="120" height="60" as="geometry"/>
        </mxCell>

        <mxCell id="emailExists" value="Return error: Email already in use" style="rounded=1;whiteSpace=wrap;html=1;fillColor=#f8cecc;" vertex="1" parent="1">
          <mxGeometry x="240" y="240" width="160" height="40" as="geometry"/>
        </mxCell>

        <mxCell id="saveUser" value="Hash password &amp; save user record" style="rounded=1;whiteSpace=wrap;html=1;fillColor=#dae8fc;" vertex="1" parent="1">
          <mxGeometry x="60" y="320" width="180" height="40" as="geometry"/>
        </mxCell>

        <mxCell id="welcomeEmail" value="Send welcome email" style="rounded=1;whiteSpace=wrap;html=1;fillColor=#dae8fc;" vertex="1" parent="1">
          <mxGeometry x="60" y="380" width="160" height="40" as="geometry"/>
        </mxCell>

        <mxCell id="success" value="Return success response" style="rounded=1;whiteSpace=wrap;html=1;fillColor=#d5e8d4;" vertex="1" parent="1">
          <mxGeometry x="60" y="440" width="180" height="40" as="geometry"/>
        </mxCell>

        <mxCell id="end" value="End" style="ellipse;whiteSpace=wrap;html=1;aspect=fixed;fillColor=#d5e8d4;" vertex="1" parent="1">
          <mxGeometry x="60" y="500" width="100" height="40" as="geometry"/>
        </mxCell>

        <!-- Arrows -->
        <mxCell style="endArrow=block;" edge="1" parent="1" source="start" target="submit"><mxGeometry relative="1" as="geometry"/></mxCell>
        <mxCell style="endArrow=block;" edge="1" parent="1" source="submit" target="validate"><mxGeometry relative="1" as="geometry"/></mxCell>
        <mxCell style="endArrow=block;" edge="1" parent="1" source="validate" target="validNo"><mxGeometry relative="1" x="1" y="0.5" as="geometry"/></mxCell>
        <mxCell style="endArrow=block;" edge="1" parent="1" source="validate" target="checkEmail"><mxGeometry relative="1" as="geometry"/></mxCell>
        <mxCell style="endArrow=block;" edge="1" parent="1" source="checkEmail" target="emailExists"><mxGeometry relative="1" x="1" y="0.5" as="geometry"/></mxCell>
        <mxCell style="endArrow=block;" edge="1" parent="1" source="checkEmail" target="saveUser"><mxGeometry relative="1" as="geometry"/></mxCell>
        <mxCell style="endArrow=block;" edge="1" parent="1" source="saveUser" target="welcomeEmail"><mxGeometry relative="1" as="geometry"/></mxCell>
        <mxCell style="endArrow=block;" edge="1" parent="1" source="welcomeEmail" target="success"><mxGeometry relative="1" as="geometry"/></mxCell>
        <mxCell style="endArrow=block;" edge="1" parent="1" source="success" target="end"><mxGeometry relative="1" as="geometry"/></mxCell>

      </root>
    </mxGraphModel>
  </diagram>
</mxfile>
